<svg version="1.0" xmlns="http://www.w3.org/2000/svg"
 width="512.000000pt" height="512.000000pt" viewBox="0 0 512.000000 512.000000"
 preserveAspectRatio="xMidYMid meet">
<g transform="translate(0.000000,512.000000) scale(0.100000,-0.100000)"
fill="#7209b7" stroke="#d6b3f0">
<path d="M945 5057 c-35 -17 -45 -55 -45 -167 0 -59 -4 -187 -10 -286 -5 -98
-15 -305 -21 -459 -6 -154 -14 -347 -18 -430 l-6 -150 -84 -48 c-46 -26 -109
-62 -140 -79 -31 -17 -69 -39 -86 -48 -16 -9 -57 -32 -90 -50 -72 -40 -100
-66 -108 -100 -7 -29 -12 -49 -67 -240 -23 -80 -45 -158 -50 -175 -5 -16 -27
-95 -50 -175 -23 -80 -45 -158 -50 -175 -5 -16 -13 -46 -19 -65 -24 -77 -4
-130 49 -130 12 0 39 -4 59 -10 20 -5 133 -28 251 -50 118 -23 227 -43 242
-46 15 -3 30 -9 33 -14 3 -4 -9 -39 -26 -76 -17 -38 -40 -89 -51 -114 -11 -25
-36 -78 -54 -118 -19 -41 -34 -84 -34 -97 0 -46 12 -48 292 -44 l263 4 76
-190 c42 -104 81 -201 87 -215 47 -119 95 -239 103 -255 5 -11 38 -94 74 -185
36 -91 70 -174 75 -185 5 -11 28 -67 50 -124 22 -57 46 -109 54 -116 7 -7 35
-23 62 -35 27 -12 63 -27 79 -35 17 -7 75 -32 130 -55 94 -40 149 -63 220 -95
17 -7 75 -32 130 -55 127 -53 156 -66 232 -102 l63 -30 72 35 c40 20 96 44
123 55 28 11 76 32 107 46 31 14 59 26 62 26 3 0 34 13 68 29 35 16 101 44
148 64 47 19 115 49 153 66 37 17 70 31 73 31 12 0 99 43 110 55 8 7 32 59 54
116 22 57 45 113 50 124 5 11 28 67 50 125 23 58 46 114 50 125 5 11 39 94 75
185 36 91 70 174 75 185 5 11 23 56 40 100 17 44 35 89 39 100 5 11 15 34 21
50 7 17 24 59 39 95 l27 65 262 -4 c280 -4 292 -2 292 44 0 13 -15 56 -34 97
-18 40 -43 93 -54 118 -11 25 -34 76 -51 114 -17 37 -28 72 -26 77 3 4 22 11
43 15 36 6 379 72 492 94 92 19 105 29 104 80 0 25 -8 70 -16 100 -37 125
-101 347 -108 375 -5 17 -27 95 -50 175 -53 185 -60 210 -67 239 -11 43 -32
58 -289 202 -28 15 -89 50 -135 76 l-84 48 -6 150 c-4 83 -14 328 -23 545 -8
217 -18 411 -20 430 -3 19 -6 97 -7 173 -1 147 -8 177 -48 195 -62 29 -70 26
-345 -155 -105 -69 -276 -181 -381 -250 -104 -69 -323 -212 -485 -318 -162
-106 -308 -203 -323 -215 -43 -34 -106 -38 -142 -8 -30 24 -64 46 -375 250
-96 63 -249 163 -340 223 -91 60 -230 151 -310 203 -80 52 -194 128 -255 167
-60 40 -127 82 -148 94 -40 22 -88 25 -122 8z m333 -444 c8 -12 200 -149 767
-548 226 -159 430 -304 454 -322 24 -18 50 -33 58 -33 13 0 1229 853 1282 899
13 12 32 21 41 21 20 0 65 -21 68 -32 2 -4 5 -13 7 -20 3 -7 6 -280 8 -606 l2
-594 155 -80 c85 -43 216 -111 291 -149 108 -55 139 -75 147 -97 15 -38 184
-565 186 -577 0 -5 -33 -13 -74 -17 -79 -7 -347 -35 -465 -48 -75 -8 -109 -15
-125 -25 -21 -13 -8 -72 50 -217 33 -83 60 -157 60 -165 0 -10 -40 -13 -198
-13 -196 0 -199 0 -210 -22 -10 -20 -90 -238 -112 -308 -5 -14 -27 -77 -50
-140 -23 -63 -46 -126 -50 -140 -4 -14 -27 -77 -50 -140 -23 -63 -52 -146 -65
-185 -13 -38 -42 -122 -65 -185 -23 -63 -47 -130 -53 -149 -13 -38 -33 -51
-152 -101 -44 -18 -105 -44 -135 -58 -30 -13 -83 -37 -117 -53 -34 -16 -91
-40 -125 -55 -35 -14 -82 -35 -105 -45 -23 -10 -47 -19 -52 -19 -7 0 -11 45
-11 129 0 144 -2 138 78 193 26 17 78 56 116 87 218 175 270 316 124 335 -24
4 -222 5 -441 4 l-399 -3 -19 -24 c-34 -42 -22 -102 32 -165 61 -72 187 -182
263 -230 16 -10 42 -30 57 -44 l29 -25 0 -129 c0 -85 -4 -128 -11 -128 -6 0
-40 13 -76 30 -35 16 -66 30 -69 30 -2 0 -38 16 -80 35 -41 19 -77 35 -79 35
-2 0 -32 13 -67 29 -35 16 -114 52 -176 79 -62 27 -119 58 -125 68 -7 11 -21
44 -31 74 -10 30 -22 64 -27 75 -4 11 -17 47 -28 80 -11 33 -39 112 -61 175
-23 63 -46 126 -50 140 -5 14 -32 90 -60 170 -29 80 -56 156 -60 170 -5 14
-27 77 -50 140 -23 63 -46 130 -52 148 -5 19 -18 53 -28 78 l-19 44 -201 0
c-162 0 -200 3 -200 14 0 7 27 80 60 162 60 150 71 202 47 223 -15 12 -142 27
-512 61 -143 13 -158 16 -152 27 2 5 44 130 91 278 48 149 92 282 98 297 8 21
39 42 146 96 76 39 207 106 292 150 l155 80 3 600 2 599 25 25 c25 26 80 32
93 11z"/>
<path d="M1644 2782 c-22 -14 -36 -82 -29 -138 15 -121 106 -238 233 -297 54
-25 83 -32 153 -35 93 -5 159 10 159 34 0 66 -197 299 -315 373 -87 55 -173
82 -201 63z"/>
<path d="M3380 2773 c-71 -25 -169 -94 -241 -169 -99 -104 -179 -219 -179
-258 0 -35 148 -48 248 -22 117 31 234 131 271 231 32 85 30 205 -3 227 -16
11 -46 8 -96 -9z"/>
</g>
</svg>
