<svg version="1.0" xmlns="http://www.w3.org/2000/svg"
 width="2560.000000pt" height="1440.000000pt" viewBox="0 0 2560.000000 1440.000000"
 preserveAspectRatio="xMidYMid meet" style="background:#d6b3f0;">
<g transform="translate(0.000000,1440.000000) scale(0.100000,-0.100000)"
fill="#683cb6" stroke="none">
<path d="M6711 14283 c-117 -588 -568 -1062 -1128 -1188 -60 -13 -162 -34
-228 -46 -325 -59 -604 -206 -834 -439 -189 -192 -303 -392 -391 -685 -74
-246 -127 -364 -230 -505 -66 -91 -102 -145 -171 -255 -65 -104 -175 -239
-281 -341 -264 -258 -579 -421 -963 -500 -74 -15 -138 -19 -355 -19 -320 -1
-358 -9 -560 -114 -105 -54 -174 -107 -266 -202 -127 -133 -187 -232 -264
-439 -67 -177 -140 -290 -267 -413 -183 -177 -420 -280 -695 -302 l-78 -7 0
-4414 0 -4414 9689 0 9688 0 7 58 c17 143 67 299 142 441 176 334 464 551 889
671 139 40 197 61 287 106 185 92 384 257 506 419 61 81 161 279 191 380 12
39 26 84 31 101 6 17 17 107 24 200 21 240 47 356 117 512 116 258 343 490
609 623 147 73 161 78 360 130 41 10 140 24 220 30 153 12 286 2 475 -37 68
-13 91 -14 155 -4 330 53 604 227 785 499 56 85 75 124 121 262 61 179 117
287 205 395 179 219 391 333 729 391 58 10 261 10 323 1 l47 -8 0 4615 0 4615
-9433 0 -9432 0 -24 -117z m-2670 -4392 c18 -22 19 -43 19 -310 l0 -286 53 75
c28 41 69 93 89 115 l37 40 103 3 c70 2 111 -2 128 -10 48 -25 38 -52 -75
-213 -58 -82 -104 -154 -101 -160 2 -5 60 -97 130 -204 69 -106 126 -198 126
-203 0 -5 -11 -20 -25 -33 -22 -23 -31 -25 -125 -25 -147 0 -150 2 -250 165
l-85 138 -5 -131 c-6 -171 -3 -167 -151 -167 -104 0 -112 1 -130 24 -18 22
-19 47 -19 588 0 380 3 571 11 584 16 32 47 39 152 36 90 -2 100 -4 118 -26z
m3446 6 c17 -16 18 -59 21 -565 2 -301 0 -562 -3 -580 -8 -45 -39 -61 -128
-68 -65 -6 -80 -4 -96 10 -19 17 -22 17 -78 -5 -42 -16 -81 -22 -143 -23 -74
-1 -92 3 -142 27 -118 58 -177 174 -185 367 -9 184 25 288 124 381 81 77 127
94 251 94 l102 -1 0 164 c0 96 4 171 11 183 17 32 47 39 151 36 77 -2 102 -6
115 -20z m-3961 -68 c69 -43 93 -155 46 -218 -73 -100 -209 -96 -279 8 -38 56
-25 149 27 196 52 47 144 53 206 14z m5285 -4 c68 -44 88 -151 41 -215 -74
-99 -209 -94 -280 10 -20 29 -23 44 -20 88 6 64 29 99 89 130 54 29 115 24
170 -13z m-2505 -16 c188 -34 332 -180 380 -385 23 -100 21 -278 -5 -377 -63
-242 -235 -377 -481 -377 -241 0 -401 116 -477 343 -24 74 -27 96 -27 232 0
135 3 158 26 227 31 94 73 161 137 221 111 104 277 147 447 116z m-3956 -19
c24 -13 33 -45 105 -360 31 -135 58 -246 60 -248 5 -5 11 18 81 322 36 154 65
258 77 272 18 24 21 24 207 24 168 0 190 -2 211 -19 l23 -18 13 -509 c9 -342
10 -516 3 -532 -5 -12 -21 -27 -36 -32 -29 -11 -155 -13 -203 -4 -57 12 -59
24 -67 317 -4 147 -9 265 -11 263 -2 -2 -31 -111 -63 -243 -32 -131 -63 -250
-69 -265 -15 -39 -66 -51 -196 -46 -95 3 -109 6 -125 25 -10 13 -45 132 -81
277 -35 140 -66 253 -68 250 -3 -3 -8 -123 -11 -267 -4 -144 -10 -270 -14
-279 -11 -25 -60 -38 -146 -38 -90 0 -137 13 -146 42 -6 21 13 962 21 1012 11
64 18 66 227 66 110 0 197 -4 208 -10z m2732 -282 c77 -35 123 -80 159 -154
28 -57 33 -78 37 -167 4 -93 2 -104 -18 -129 l-21 -28 -201 0 -200 0 6 -27
c11 -45 40 -77 85 -93 43 -15 45 -15 236 27 12 3 32 -4 45 -15 21 -17 24 -27
24 -97 1 -77 1 -79 -30 -97 -55 -33 -182 -58 -287 -59 -88 0 -105 3 -160 29
-142 66 -227 217 -227 402 0 81 22 185 50 240 46 91 139 165 237 190 68 17
204 6 265 -22z m2798 7 c17 -16 24 -15 101 4 145 37 249 22 327 -45 91 -77
104 -145 100 -496 -3 -231 -5 -259 -21 -275 -15 -15 -36 -18 -132 -18 -96 0
-117 3 -132 18 -16 16 -18 45 -21 299 -2 188 -7 287 -14 295 -8 10 -30 13 -72
11 l-61 -3 -5 -292 c-6 -347 2 -326 -121 -332 -43 -2 -95 0 -114 3 -68 13 -65
-3 -65 421 0 335 2 386 16 399 36 37 178 44 214 11z m1600 0 c78 -21 83 -28
77 -108 -7 -99 -11 -102 -159 -102 -89 0 -122 -3 -125 -13 -3 -8 37 -32 110
-66 122 -58 187 -107 217 -166 67 -130 6 -286 -139 -357 -52 -26 -65 -28 -181
-28 -91 0 -140 5 -182 18 -85 26 -92 36 -85 126 7 86 29 117 77 107 14 -3 59
-12 100 -21 89 -19 140 -13 140 16 0 15 -26 31 -112 73 -163 78 -215 135 -225
245 -13 144 75 251 237 288 62 14 172 9 250 -12z m-5906 -21 c14 -13 16 -63
16 -394 0 -420 3 -403 -66 -416 -20 -4 -70 -4 -112 -2 -117 8 -112 -6 -112
328 l0 277 -39 15 c-33 13 -41 22 -47 52 -8 47 1 105 20 124 30 30 313 44 340
16z m5280 0 c14 -13 16 -63 16 -394 0 -419 3 -403 -65 -416 -19 -3 -69 -4
-111 -2 -119 6 -114 -8 -114 327 l0 277 -36 13 c-22 8 -39 22 -45 39 -14 36
-6 120 14 139 31 31 313 45 341 17z m-6720 -1610 c21 -8 22 -72 1 -80 -12 -5
-15 -31 -15 -146 0 -155 -9 -187 -60 -213 -36 -19 -110 -20 -134 -2 -17 12
-17 17 -5 43 10 20 23 30 42 32 l27 3 0 138 c0 111 -3 141 -15 151 -20 17 -19
57 3 69 19 11 131 15 156 5z m410 -10 c13 -13 16 -42 16 -162 0 -81 4 -152 8
-158 15 -24 50 -26 71 -5 19 19 21 33 21 169 0 102 4 152 12 160 16 16 80 15
102 -1 16 -12 17 -29 14 -179 -3 -150 -5 -169 -24 -194 -38 -51 -68 -66 -141
-71 -57 -4 -75 -1 -113 19 -72 37 -80 63 -80 260 0 124 3 168 13 171 27 12 86
6 101 -9z m660 3 c11 -8 41 -58 67 -113 l49 -99 -4 98 c-4 77 -1 100 11 112
18 19 87 20 102 1 8 -9 11 -77 9 -222 l-3 -209 -68 -3 -68 -3 -54 113 -54 113
-3 -110 -3 -110 -55 0 -55 0 -3 209 c-2 145 1 213 9 222 15 18 99 18 123 1z
m690 7 c21 -8 21 -67 1 -84 -23 -19 -22 -265 1 -278 10 -6 14 -20 12 -43 l-3
-34 -84 -3 c-89 -3 -101 2 -101 44 0 12 7 27 15 34 12 10 15 39 15 142 0 102
-3 133 -15 144 -20 21 -19 61 3 73 19 11 131 15 156 5z m560 -8 c82 -34 121
-115 114 -236 -4 -69 -9 -87 -34 -122 -51 -73 -134 -102 -221 -79 -95 26 -142
100 -143 222 0 144 73 229 197 229 29 0 69 -6 87 -14z m626 -7 c47 -27 70 -66
70 -121 0 -44 -28 -104 -54 -114 -11 -4 -2 -26 36 -89 27 -46 47 -89 43 -94
-9 -16 -111 -14 -127 3 -8 8 -28 39 -44 70 -16 31 -32 56 -36 56 -4 0 -8 -30
-10 -67 l-3 -68 -55 0 -55 0 -3 214 c-2 165 1 216 10 223 7 4 53 8 102 8 71 0
95 -4 126 -21z m957 15 c26 -7 36 -32 27 -68 -6 -23 -11 -25 -72 -28 -86 -4
-88 -22 -9 -64 82 -43 108 -72 114 -126 7 -59 -18 -110 -66 -140 -29 -19 -50
-23 -112 -23 -94 0 -111 11 -107 69 l3 41 75 0 c68 0 75 2 75 20 0 13 -20 30
-65 56 -81 46 -103 74 -103 134 0 83 63 135 163 135 30 0 65 -3 77 -6z m597
-8 c43 -18 91 -77 106 -132 19 -66 8 -164 -23 -217 -32 -54 -63 -75 -130 -89
-155 -32 -271 102 -239 276 22 115 88 175 195 176 32 0 72 -6 91 -14z m637 4
c13 -7 19 -21 19 -45 0 -43 -20 -55 -94 -55 l-56 0 0 -35 0 -35 49 0 c69 0 81
-7 81 -44 0 -46 -10 -54 -70 -58 l-55 -3 -5 -80 -5 -80 -54 -3 c-37 -2 -57 1
-62 10 -5 7 -9 104 -9 215 0 182 2 203 18 212 23 14 218 14 243 1z m583 4 c19
-7 22 -74 4 -92 -7 -7 -29 -12 -50 -12 l-38 0 0 -151 c0 -84 -5 -159 -10 -170
-8 -15 -21 -19 -60 -19 -39 0 -52 4 -60 19 -5 11 -10 86 -10 170 l0 151 -40 0
c-45 0 -63 21 -53 61 12 47 18 49 163 49 76 0 145 -3 154 -6z m378 -6 c9 -7
26 -57 39 -111 13 -53 26 -94 30 -90 3 5 14 42 24 83 26 111 25 110 100 110
76 0 75 1 100 -118 10 -45 20 -81 22 -78 2 2 13 44 25 92 25 107 37 124 92
124 74 0 74 4 21 -216 -26 -110 -52 -207 -57 -216 -7 -14 -22 -18 -71 -18 -35
0 -68 5 -75 12 -6 6 -22 56 -34 110 -12 54 -25 93 -29 86 -4 -7 -15 -49 -24
-93 -25 -116 -25 -115 -99 -115 -45 0 -67 4 -76 15 -7 9 -35 104 -61 213 -53
220 -53 222 21 222 20 0 43 -6 52 -12z m1006 -6 c23 -23 156 -397 149 -417 -5
-11 -21 -15 -56 -15 -55 0 -72 15 -86 73 -7 26 -10 27 -66 27 l-58 0 -12 -40
c-16 -53 -28 -62 -86 -58 -37 2 -49 7 -51 22 -6 28 127 388 150 409 27 23 92
23 116 -1z m641 0 c54 -27 76 -65 76 -127 0 -47 -4 -58 -33 -88 l-33 -34 47
-76 c57 -94 55 -107 -21 -107 -55 0 -56 0 -84 45 -16 25 -35 60 -42 78 -14 32
-14 31 -19 -43 l-5 -75 -60 0 -60 0 -3 209 c-2 145 1 213 9 222 18 22 184 19
228 -4z m629 6 c7 -7 12 -26 12 -43 0 -46 -16 -55 -92 -55 l-68 0 0 -30 c0
-29 0 -29 68 -32 l67 -3 3 -33 c5 -49 -11 -62 -79 -62 l-59 0 0 -40 0 -39 78
-3 77 -3 0 -45 0 -45 -135 0 -135 0 -3 214 c-2 165 1 216 10 223 21 13 242 10
256 -4z m950 0 c7 -7 12 -26 12 -43 0 -46 -16 -55 -92 -55 l-68 0 0 -30 c0
-29 0 -29 68 -32 l67 -3 3 -33 c5 -49 -11 -62 -79 -62 l-59 0 0 -40 0 -39 78
-3 77 -3 0 -45 0 -45 -135 0 -135 0 -3 214 c-2 165 1 216 10 223 21 13 242 10
256 -4z m422 2 c8 -5 36 -53 62 -107 l46 -98 1 101 c1 112 2 114 66 114 62 0
65 -10 65 -221 0 -112 -4 -198 -10 -210 -9 -15 -22 -19 -69 -19 -70 0 -73 3
-127 122 l-39 87 -5 -102 -5 -102 -55 0 -55 0 -3 214 c-2 165 1 216 10 223 18
11 100 10 118 -2z m814 0 c20 -7 26 -17 26 -39 0 -42 -26 -64 -66 -58 -57 9
-104 -10 -120 -48 -28 -68 -11 -173 31 -189 36 -13 55 -7 55 19 0 17 -5 25
-18 25 -25 0 -42 20 -42 50 0 41 17 50 95 50 42 0 76 -5 83 -12 8 -8 12 -48
12 -115 0 -125 -1 -126 -140 -127 -79 -1 -101 2 -130 20 -74 43 -112 149 -92
258 21 111 102 176 218 176 35 0 74 -4 88 -10z m500 -6 c20 -20 20 -48 1 -68
-23 -23 -21 -253 3 -295 29 -51 11 -65 -86 -69 -72 -2 -82 -1 -91 17 -12 22 1
71 19 71 6 0 10 47 10 126 0 111 -2 129 -20 151 -21 27 -19 60 4 75 22 15 144
9 160 -8z m417 5 c11 -5 42 -56 69 -112 l50 -102 -6 102 c-5 95 -4 102 15 112
28 15 86 14 100 -3 8 -9 11 -77 9 -222 l-3 -209 -66 -3 c-45 -2 -69 1 -76 10
-5 7 -27 51 -48 98 -21 47 -43 90 -48 95 -5 6 -7 -30 -5 -87 2 -61 -1 -101 -8
-108 -6 -6 -33 -10 -60 -8 l-49 3 -3 209 c-2 145 1 213 9 222 14 17 92 19 120
3z m793 5 c11 -4 16 -19 16 -49 0 -51 -7 -55 -91 -55 -59 0 -59 0 -59 -30 l0
-30 64 0 c66 0 76 -6 76 -50 0 -34 -28 -50 -86 -50 l-54 0 0 -40 0 -40 74 0
c78 0 86 -5 86 -55 0 -41 -19 -46 -156 -43 l-129 3 -3 209 c-2 145 1 213 9
222 8 10 41 14 124 14 63 0 120 -3 129 -6z m560 0 c11 -4 16 -19 16 -49 0 -51
-7 -55 -91 -55 -59 0 -59 0 -59 -30 l0 -30 64 0 c66 0 76 -6 76 -50 0 -34 -28
-50 -86 -50 l-54 0 0 -40 0 -40 74 0 c78 0 86 -5 86 -55 0 -41 -19 -46 -156
-43 l-129 3 -3 209 c-2 145 1 213 9 222 8 10 41 14 124 14 63 0 120 -3 129 -6z
m535 -12 c54 -27 76 -65 76 -127 0 -47 -4 -58 -32 -87 l-32 -33 45 -78 c26
-42 44 -84 40 -92 -4 -11 -21 -15 -61 -15 -55 0 -56 0 -84 45 -16 25 -35 60
-42 78 -14 32 -14 31 -19 -43 l-5 -75 -60 0 -60 0 -3 209 c-2 145 1 213 9 222
18 22 184 19 228 -4z m-13399 -1292 c19 -36 -3 -60 -55 -60 -41 0 -45 -2 -45
-24 0 -22 5 -25 43 -28 39 -3 42 -5 45 -35 3 -33 3 -33 -42 -33 l-46 0 0 -60
c0 -55 -2 -60 -24 -66 -60 -15 -61 -12 -64 151 -1 82 0 155 2 162 4 9 30 13
90 13 75 0 87 -2 96 -20z m319 1 c23 -43 102 -273 99 -289 -4 -19 -29 -26 -63
-18 -16 4 -27 18 -35 41 -11 32 -15 35 -50 35 -35 0 -39 -3 -50 -34 -6 -19
-18 -37 -26 -40 -29 -11 -65 -6 -71 9 -5 15 64 229 94 288 11 23 20 27 53 27
28 0 42 -5 49 -19z m394 8 c59 -30 76 -106 33 -155 l-23 -28 35 -59 c38 -64
35 -77 -19 -77 -33 0 -52 16 -78 65 l-20 40 -1 -33 c0 -46 -16 -72 -45 -72
-55 0 -55 0 -55 165 0 113 3 155 13 158 24 10 139 7 160 -4z m336 -6 c5 -10
14 -44 21 -75 7 -32 16 -55 20 -53 4 2 13 31 20 65 7 33 18 65 26 70 7 6 36
10 66 8 l53 -3 9 -154 c10 -166 8 -171 -44 -171 -38 0 -50 18 -51 80 l-1 55
-15 -58 c-16 -60 -32 -73 -83 -65 -27 4 -34 15 -54 83 l-14 50 -1 -67 c-1 -63
-3 -68 -25 -74 -60 -15 -61 -12 -64 150 -2 101 1 153 9 162 18 22 116 19 128
-3z m489 -12 c2 -13 -1 -28 -7 -34 -14 -14 -15 -194 -1 -202 16 -10 12 -52 -6
-59 -9 -3 -33 -6 -54 -6 -21 0 -45 3 -54 6 -18 7 -22 49 -6 59 6 3 10 48 10
100 0 52 -4 97 -10 100 -11 7 -13 48 -3 59 4 4 34 6 68 4 55 -3 60 -5 63 -27z
m274 -51 l37 -75 3 75 3 75 40 0 40 0 3 -154 c3 -168 2 -171 -53 -171 -43 0
-50 7 -87 85 l-33 70 -5 -75 c-5 -73 -6 -75 -33 -78 -52 -6 -57 7 -57 162 0
100 4 146 12 154 7 7 30 12 53 10 39 -3 41 -5 77 -78z m497 66 c8 -9 8 -21 1
-40 -8 -23 -15 -26 -59 -26 -40 0 -53 -4 -65 -22 -34 -48 -10 -148 35 -148 25
0 25 26 -1 33 -15 4 -20 14 -20 36 l0 31 65 0 c61 0 65 -1 71 -25 8 -31 1
-132 -10 -142 -4 -4 -38 -9 -75 -11 -91 -5 -132 14 -162 74 -43 89 -11 207 65
240 42 18 140 18 155 0z m348 -6 c52 -32 68 -65 68 -145 0 -115 -49 -165 -162
-165 -98 0 -93 -10 -93 164 0 84 3 156 7 159 3 4 38 7 77 7 53 0 79 -5 103
-20z m366 14 c18 -7 122 -288 113 -309 -5 -15 -41 -20 -70 -9 -8 3 -20 21 -26
40 -11 31 -15 34 -50 34 -34 0 -40 -4 -57 -37 -14 -30 -24 -39 -48 -41 -59 -5
-60 4 -4 159 28 79 56 150 61 157 11 12 55 16 81 6z m325 -121 l3 -123 44 0
c43 0 45 -1 45 -29 0 -43 -19 -52 -102 -49 l-73 3 -3 150 c-1 82 0 155 3 163
3 9 18 12 42 10 l38 -3 3 -122z m417 87 l0 -35 -52 -3 c-44 -3 -53 -6 -53 -22
0 -15 9 -19 48 -22 45 -3 47 -4 47 -33 0 -29 -2 -30 -47 -33 -46 -3 -48 -5
-48 -32 0 -28 2 -29 53 -32 l52 -3 0 -35 0 -35 -95 0 -95 0 -3 150 c-1 82 0
155 3 162 3 11 27 13 97 11 l93 -3 0 -35z m523 31 c8 -5 12 -21 10 -37 -3 -27
-6 -29 -47 -29 -61 0 -62 -19 -2 -50 66 -33 88 -72 72 -127 -16 -51 -59 -78
-124 -78 -60 0 -87 14 -87 45 0 32 15 39 72 36 66 -3 64 18 -6 58 -84 47 -97
118 -30 170 28 22 115 30 142 12z m387 -31 c0 -33 -2 -35 -37 -38 l-37 -3 -3
-122 -3 -122 -40 0 -40 0 -3 123 -3 122 -28 0 c-40 0 -57 23 -43 56 12 24 13
25 124 22 l113 -3 0 -35z m312 28 c18 -24 105 -277 101 -295 -4 -20 -28 -28
-63 -19 -16 4 -27 18 -35 41 -11 32 -15 35 -50 35 -35 0 -39 -3 -50 -35 -8
-23 -19 -37 -35 -41 -34 -8 -59 -1 -63 18 -3 16 76 246 99 289 11 22 81 27 96
7z m451 -16 c5 -32 -15 -52 -49 -52 l-29 0 0 -119 c0 -127 -2 -131 -54 -131
-40 0 -46 18 -46 136 l0 113 -32 3 c-26 2 -34 8 -36 26 -7 46 12 53 132 50
107 -3 111 -4 114 -26z m327 -12 l0 -35 -52 -3 c-45 -3 -53 -6 -53 -23 0 -16
7 -19 44 -19 50 0 61 -10 52 -46 -6 -21 -12 -24 -51 -24 -43 0 -45 -1 -45 -29
0 -29 2 -30 53 -33 49 -3 52 -5 55 -32 2 -16 -2 -32 -10 -37 -21 -13 -172 -11
-186 3 -17 17 -17 289 0 306 9 9 41 12 103 10 l90 -3 0 -35z m553 34 c22 -6
28 -27 16 -58 -4 -12 -20 -16 -55 -16 -58 0 -69 -14 -69 -89 0 -66 19 -85 76
-77 46 6 68 -9 62 -41 -8 -41 -111 -57 -169 -28 -47 25 -69 70 -69 143 0 35 6
75 14 90 16 30 53 66 76 75 21 8 90 8 118 1z m388 -25 c40 -37 54 -73 54 -136
0 -105 -61 -167 -158 -160 -86 6 -132 64 -132 164 0 68 21 114 65 144 43 29
134 23 171 -12z m274 -94 l5 -120 43 -3 c41 -3 42 -4 42 -37 0 -42 -15 -47
-110 -43 l-65 3 -3 150 c-1 82 0 155 3 163 3 9 18 12 42 10 l38 -3 5 -120z
m310 0 l5 -120 43 -3 c41 -3 42 -4 42 -37 0 -42 -15 -47 -110 -43 l-65 3 -3
150 c-1 82 0 155 3 163 3 9 18 12 42 10 l38 -3 5 -120z m415 85 l0 -35 -52 -3
c-44 -3 -53 -6 -53 -22 0 -15 9 -19 48 -22 45 -3 47 -4 47 -33 0 -28 -3 -30
-45 -35 -40 -4 -45 -8 -48 -32 -3 -26 -1 -27 50 -30 l53 -3 0 -35 0 -35 -95 0
-95 0 -3 150 c-1 82 0 155 3 162 3 11 27 13 97 11 l93 -3 0 -35z m365 30 c11
-7 12 -15 4 -37 -7 -23 -16 -29 -44 -31 -67 -5 -78 -11 -90 -48 -21 -62 4
-124 49 -124 20 0 11 28 -10 33 -16 4 -20 12 -17 34 3 28 4 28 68 28 l65 0 3
-78 c3 -76 3 -77 -25 -88 -15 -6 -58 -9 -95 -7 -58 3 -72 8 -98 33 -77 73 -60
230 30 277 37 19 134 25 160 8z m364 -12 c19 -30 -4 -53 -58 -56 -38 -3 -46
-7 -46 -23 0 -16 7 -19 45 -19 45 0 45 0 45 -35 0 -35 0 -35 -45 -35 -43 0
-45 -1 -45 -29 0 -29 2 -30 53 -33 49 -3 52 -5 55 -32 2 -16 -2 -32 -10 -37
-15 -10 -158 -12 -182 -3 -14 5 -16 29 -16 158 0 84 3 156 7 160 4 4 47 5 96
4 73 -2 92 -6 101 -20z m-7774 -1065 l0 -144 -37 3 -38 3 0 140 0 139 25 6
c48 13 50 8 50 -147z m440 83 c4 -52 7 -57 19 -43 16 20 81 23 81 5 0 -7 -9
-24 -20 -38 -25 -33 -25 -43 5 -90 33 -53 32 -60 -13 -60 -31 0 -41 5 -53 26
l-14 26 -5 -23 c-5 -19 -13 -25 -43 -27 l-37 -3 0 146 0 146 38 -3 37 -3 5
-59z m488 -61 c4 -164 5 -161 -70 -169 -73 -7 -101 6 -117 56 -11 32 -12 33
-61 30 -61 -5 -64 -27 -4 -27 32 0 40 -4 42 -21 2 -17 -5 -24 -29 -33 -49 -17
-75 -13 -107 14 -37 31 -48 81 -28 129 18 43 45 58 99 54 34 -2 45 -9 64 -37
13 -19 23 -29 23 -22 0 24 49 61 80 61 29 0 30 1 30 46 l0 45 38 -3 37 -3 3
-120z m2332 61 c4 -52 7 -57 19 -43 16 20 81 23 81 5 0 -7 -9 -24 -20 -38 -26
-33 -25 -44 5 -88 35 -51 32 -62 -13 -62 -31 0 -41 5 -53 26 l-14 26 -5 -23
c-5 -19 -13 -25 -43 -27 l-37 -3 0 146 0 146 38 -3 37 -3 5 -59z m820 -80 l0
-143 -62 -7 c-70 -7 -102 7 -119 51 l-10 27 -19 -32 c-24 -38 -63 -56 -107
-47 -47 8 -73 47 -73 107 0 65 30 98 90 98 53 0 78 -14 95 -53 12 -29 14 -30
21 -12 13 36 46 65 76 65 24 0 28 4 28 29 0 49 9 61 46 61 l34 0 0 -144z
m-3970 119 c10 -12 10 -22 3 -38 -7 -15 -7 -29 -2 -40 6 -9 9 -54 7 -99 l-3
-83 -37 -3 -38 -3 0 70 c0 38 -4 73 -10 76 -16 10 -12 45 5 45 17 0 20 16 5
25 -14 8 -13 38 2 53 17 17 53 15 68 -3z m924 -7 c8 -13 8 -23 -1 -36 -7 -12
-8 -24 -2 -35 6 -9 9 -54 7 -99 l-3 -83 -37 -3 -38 -3 0 70 c0 38 -4 73 -10
76 -16 10 -12 45 5 45 17 0 20 16 5 25 -14 9 -13 38 2 53 17 17 58 11 72 -10z
m1186 14 c0 -8 -89 -258 -111 -314 -9 -23 -18 -28 -45 -28 -23 0 -34 5 -34 15
0 14 104 307 115 326 7 11 75 12 75 1z m94 -14 c8 -13 8 -23 -1 -38 -8 -12 -9
-21 -3 -25 6 -3 10 -49 10 -101 l0 -95 -37 3 -38 3 -3 60 c-1 33 -8 71 -14 84
-11 19 -10 25 6 36 14 11 15 17 7 34 -14 26 -14 27 5 46 20 20 53 16 68 -7z
m426 10 c0 -7 -27 -85 -58 -173 l-58 -160 -37 -3 c-24 -2 -37 1 -37 9 0 10 56
169 111 317 7 17 16 22 44 22 21 0 35 -5 35 -12z m404 -10 c8 -13 8 -23 -1
-38 -8 -12 -9 -21 -3 -25 6 -3 10 -49 10 -101 l0 -95 -37 3 -38 3 -3 60 c-1
33 -8 71 -14 84 -11 19 -10 25 6 36 14 11 15 17 7 34 -14 26 -14 27 5 46 20
20 53 16 68 -7z m1260 0 c8 -13 8 -23 -1 -37 -7 -12 -8 -22 -2 -28 5 -5 9 -50
7 -99 l-3 -89 -37 -3 -38 -3 0 70 c0 38 -4 73 -10 76 -16 10 -12 45 5 45 17 0
20 16 5 25 -14 9 -13 38 2 53 17 17 58 11 72 -10z m-4090 -74 c22 -21 28 -50
24 -119 l-3 -60 -37 -3 -37 -3 -3 72 c-2 47 -7 74 -15 77 -10 3 -13 -16 -13
-72 l0 -76 -40 0 -40 0 0 93 c0 52 3 97 7 100 3 4 37 7 74 7 48 0 72 -5 83
-16z m918 -1 c15 -13 18 -31 18 -100 l0 -83 -34 0 c-41 0 -46 11 -46 91 0 84
-19 73 -22 -13 l-3 -73 -37 -3 -38 -3 0 100 0 101 72 0 c52 0 76 -4 90 -17z
m284 2 c9 -21 -12 -43 -44 -47 -21 -2 -28 -9 -30 -31 -4 -37 14 -58 47 -55 22
3 26 -1 26 -21 0 -35 -55 -49 -102 -27 -61 29 -67 141 -10 181 29 20 106 20
113 0z m175 -14 c52 -53 32 -148 -36 -171 -48 -16 -100 2 -120 40 -40 78 4
160 85 160 33 0 48 -6 71 -29z m296 22 c25 -10 44 -133 27 -177 -8 -22 -70
-22 -78 0 -3 9 -6 43 -6 75 0 38 -4 58 -10 54 -5 -3 -10 -37 -10 -76 l0 -69
-34 0 c-41 0 -46 11 -46 91 0 38 -4 58 -10 54 -5 -3 -10 -38 -10 -76 l0 -70
-37 3 -38 3 -3 75 c-5 126 -11 120 125 119 64 -1 123 -3 130 -6z m527 -9 c22
-21 28 -50 24 -119 l-3 -60 -37 -3 -37 -3 -3 72 c-2 47 -7 74 -15 77 -10 3
-13 -16 -13 -72 l0 -76 -40 0 -40 0 0 93 c0 52 3 97 7 100 3 4 37 7 74 7 48 0
72 -5 83 -16z m493 9 c25 -10 44 -133 27 -177 -8 -22 -70 -22 -78 0 -3 9 -6
43 -6 75 0 38 -4 58 -10 54 -5 -3 -10 -37 -10 -76 l0 -69 -34 0 c-41 0 -46 11
-46 91 0 38 -4 58 -10 54 -5 -3 -10 -38 -10 -76 l0 -70 -37 3 -38 3 -3 75 c-5
126 -11 120 125 119 64 -1 123 -3 130 -6z m513 -11 c16 -13 23 -30 24 -58 l1
-39 -53 -3 c-46 -3 -52 -5 -41 -18 8 -10 22 -12 45 -8 26 5 35 2 40 -10 15
-39 -61 -69 -117 -46 -61 26 -77 124 -28 176 28 30 95 33 129 6z m754 2 c22
-21 28 -50 24 -119 l-3 -60 -37 -3 -37 -3 -3 72 c-2 47 -7 74 -15 77 -10 3
-13 -16 -13 -72 l0 -76 -40 0 -40 0 0 93 c0 52 3 97 7 100 3 4 37 7 74 7 48 0
72 -5 83 -16z m291 -14 c0 -21 -5 -25 -27 -25 -36 1 -35 -5 5 -30 38 -24 48
-67 21 -96 -37 -42 -139 -31 -132 14 3 19 8 22 43 19 l40 -3 -35 22 c-43 26
-50 36 -50 71 0 38 34 59 90 56 41 -3 45 -5 45 -28z m-3227 -112 c32 -32 -8
-80 -48 -58 -22 12 -27 55 -7 63 22 9 43 7 55 -5z m-1356 -520 c3 -41 4 -43
33 -40 20 2 41 -5 58 -18 27 -22 28 -24 25 -119 -3 -95 -3 -96 -28 -96 -24 0
-25 3 -30 80 -5 77 -6 80 -30 80 -24 0 -25 -3 -30 -80 -5 -77 -6 -80 -30 -80
l-25 0 -3 145 c-1 79 0 150 2 157 3 7 17 13 30 13 22 0 25 -5 28 -42z m1526
10 c-2 -27 -8 -34 -30 -36 -22 -3 -29 2 -34 22 -8 34 2 46 37 46 28 0 30 -2
27 -32z m102 -39 l0 -71 35 31 c40 34 37 33 59 25 23 -9 20 -25 -14 -64 -16
-19 -29 -40 -30 -46 0 -6 16 -29 35 -51 39 -46 42 -58 19 -67 -25 -10 -32 -8
-68 24 l-35 31 -3 -28 c-2 -22 -8 -28 -28 -28 l-25 0 -3 158 -3 157 31 0 30 0
0 -71z m738 -86 c1 -84 -1 -153 -5 -154 -123 -12 -156 -4 -180 46 l-17 35 -12
-29 c-19 -44 -56 -65 -107 -58 -49 7 -87 44 -87 85 0 20 -3 23 -12 14 -7 -7
-36 -12 -65 -12 -29 0 -53 -4 -53 -9 0 -16 36 -22 66 -11 24 9 31 8 41 -7 17
-22 12 -35 -18 -50 -33 -17 -84 -16 -119 2 -54 28 -66 141 -19 191 47 50 129
38 160 -22 l15 -31 13 29 c17 39 68 63 114 54 37 -7 77 -45 77 -75 1 -9 9 0
20 20 20 39 67 65 100 56 17 -4 20 0 20 32 0 45 6 53 40 49 l25 -3 3 -152z
m310 125 c-3 -29 -6 -33 -33 -33 -21 0 -31 5 -33 18 -6 32 6 47 38 47 29 0 31
-2 28 -32z m-1678 -4 c0 -28 -122 -303 -138 -309 -8 -3 -22 1 -32 10 -9 8 -22
15 -28 15 -7 0 -17 9 -24 19 -12 19 -12 19 -36 0 -44 -34 -136 -16 -130 25 2
17 10 21 42 21 49 0 57 18 16 35 -17 7 -37 22 -45 34 -14 20 -15 19 -15 -12 0
-45 -24 -98 -50 -112 -12 -7 -35 -10 -51 -8 -27 4 -29 2 -29 -28 0 -38 -24
-58 -52 -43 -16 9 -18 26 -18 155 l0 146 28 -3 c15 -1 39 1 55 6 38 10 83 -11
99 -46 l13 -29 15 33 c11 24 25 34 52 41 50 12 91 -5 86 -37 -2 -18 -9 -22
-35 -22 -42 0 -42 -7 2 -28 26 -12 37 -25 41 -47 6 -25 10 -29 30 -24 14 4 30
1 38 -5 10 -9 19 3 41 57 72 171 73 172 100 172 16 0 25 -6 25 -16z m140 0 c0
-28 -123 -303 -138 -309 -9 -3 -22 0 -29 8 -12 11 -6 32 37 133 29 65 58 134
65 152 11 24 20 32 39 32 17 0 26 -6 26 -16z m-912 -29 c7 -15 20 -25 32 -25
13 0 24 10 30 25 7 18 17 25 35 25 14 0 25 -4 25 -9 0 -6 11 -22 24 -36 25
-27 25 -49 0 -59 -21 -8 -20 -116 1 -116 21 0 30 -27 15 -45 -17 -20 -63 -19
-83 3 -11 12 -17 41 -19 87 -3 67 -4 70 -28 70 -23 0 -25 -4 -28 -57 -2 -48 0
-58 13 -58 21 0 30 -27 15 -45 -17 -20 -59 -19 -82 2 -14 12 -18 31 -18 81 0
48 -5 71 -17 84 -14 16 -15 22 -5 36 7 9 16 27 22 40 13 31 53 30 68 -3z m600
-24 c8 -5 12 -21 10 -37 -3 -25 -7 -29 -33 -29 -24 0 -31 5 -33 24 -3 15 3 30
14 38 21 15 24 16 42 4z m472 -2 c8 -1 31 2 50 6 28 5 41 2 60 -13 23 -18 25
-29 28 -109 4 -97 -7 -121 -48 -108 -18 6 -20 15 -20 86 0 78 -1 80 -22 77
-21 -3 -23 -9 -26 -80 -2 -67 -5 -78 -23 -83 -36 -12 -49 11 -49 91 0 67 -2
74 -20 74 -18 0 -20 -7 -20 -74 0 -80 -13 -103 -50 -91 -19 6 -20 14 -20 115
l0 109 43 4 c23 2 56 2 72 0 17 -2 37 -4 45 -4z m214 5 c24 -9 24 -222 0 -231
-38 -14 -49 9 -52 113 -2 84 0 101 15 111 20 15 17 15 37 7z m1040 -15 c26
-20 27 -23 24 -118 -3 -95 -3 -96 -28 -96 -24 0 -25 3 -30 80 -5 74 -7 80 -27
83 -22 3 -23 0 -23 -63 0 -36 -5 -75 -10 -86 -11 -19 -44 -26 -53 -11 -3 4 -7
54 -8 112 l-4 105 45 6 c78 10 87 9 114 -12z m110 15 c13 -5 16 -25 16 -114 0
-101 -2 -109 -20 -115 -40 -13 -50 10 -50 116 0 83 3 100 18 108 21 13 17 12
36 5z m164 -10 c31 -22 13 -54 -31 -55 l-32 -1 26 -11 c41 -19 59 -38 59 -62
0 -19 5 -23 31 -21 38 1 60 -25 43 -51 -16 -26 -51 -28 -65 -4 -13 19 -13 19
-37 0 -47 -37 -146 -10 -129 36 6 14 15 16 47 11 54 -9 58 8 8 36 -37 20 -43
28 -46 59 -2 30 2 41 24 58 32 25 71 27 102 5z m274 -23 c12 -19 12 -19 36 0
36 28 97 25 127 -6 14 -13 26 -32 26 -42 1 -10 5 0 8 22 l6 40 59 2 c32 1 67
-2 77 -7 12 -7 20 -7 24 0 11 18 74 11 95 -10 17 -17 20 -33 20 -99 0 -86 -15
-115 -48 -94 -13 7 -18 28 -20 82 -2 62 -5 72 -20 69 -14 -3 -18 -18 -22 -78
-5 -72 -6 -75 -30 -75 -24 0 -25 2 -28 78 -3 69 -5 77 -22 77 -18 0 -20 -7
-20 -69 0 -50 -4 -72 -16 -82 -23 -19 -48 1 -54 42 l-6 34 -7 -27 c-8 -29 -51
-58 -87 -58 -12 0 -34 7 -51 15 -27 14 -31 14 -45 0 -19 -19 -76 -19 -113 0
-58 30 -68 138 -16 182 35 30 109 32 127 4z"/>
<path d="M7086 9285 c-34 -37 -49 -115 -44 -221 7 -138 39 -182 124 -169 l44
6 -2 202 -3 202 -47 3 c-41 3 -51 -1 -72 -23z"/>
<path d="M6110 9544 c-60 -51 -90 -148 -90 -293 0 -206 54 -318 160 -335 67
-10 122 21 155 88 37 76 52 214 37 337 -20 160 -73 229 -178 229 -42 0 -59 -5
-84 -26z"/>
<path d="M4866 9298 c-8 -13 -16 -34 -18 -48 -3 -25 -2 -25 62 -21 36 2 67 5
69 7 2 2 -3 21 -10 41 -13 33 -19 38 -51 41 -29 3 -40 -2 -52 -20z"/>
<path d="M4323 7764 c-24 -38 -25 -160 0 -197 23 -35 70 -37 91 -4 33 52 30
173 -5 208 -28 28 -65 24 -86 -7z"/>
<path d="M4960 7744 c0 -43 1 -45 26 -42 37 4 51 29 36 62 -8 18 -19 26 -37
26 -23 0 -25 -4 -25 -46z"/>
<path d="M6503 7763 c-27 -40 -25 -173 1 -202 27 -30 76 -25 93 9 16 31 17
154 2 183 -25 46 -70 51 -96 10z"/>
<path d="M9166 7688 c-10 -38 -7 -48 14 -48 17 0 19 4 14 28 -9 39 -20 47 -28
20z"/>
<path d="M9770 7744 c0 -44 1 -45 28 -42 21 2 28 9 30 31 4 33 -13 57 -39 57
-16 0 -19 -8 -19 -46z"/>
<path d="M15390 7744 c0 -44 1 -45 28 -42 21 2 28 9 30 31 4 33 -13 57 -39 57
-16 0 -19 -8 -19 -46z"/>
<path d="M2360 6440 c0 -11 5 -20 10 -20 6 0 10 9 10 20 0 11 -4 20 -10 20 -5
0 -10 -9 -10 -20z"/>
<path d="M2737 6524 c-13 -13 -8 -64 7 -64 23 0 41 29 30 48 -12 19 -27 25
-37 16z"/>
<path d="M4660 6435 c0 -84 0 -85 25 -85 31 0 45 26 45 82 0 50 -22 88 -51 88
-17 0 -19 -7 -19 -85z"/>
<path d="M5080 6441 c0 -12 5 -21 10 -21 6 0 10 6 10 14 0 8 -4 18 -10 21 -5
3 -10 -3 -10 -14z"/>
<path d="M7030 6440 c0 -11 5 -20 10 -20 6 0 10 9 10 20 0 11 -4 20 -10 20 -5
0 -10 -9 -10 -20z"/>
<path d="M8690 6510 c-15 -15 -20 -34 -20 -71 0 -63 13 -89 45 -89 31 0 45 26
45 85 0 77 -33 112 -70 75z"/>
<path d="M3390 5510 c0 -5 5 -10 11 -10 5 0 7 5 4 10 -3 6 -8 10 -11 10 -2 0
-4 -4 -4 -10z"/>
<path d="M3578 5487 c-5 -28 7 -67 22 -67 5 0 10 20 10 45 0 49 -24 65 -32 22z"/>
<path d="M6531 5499 c-11 -30 -3 -81 13 -76 15 5 20 77 7 90 -7 7 -13 3 -20
-14z"/>
<path d="M6734 5486 c-7 -31 4 -68 19 -63 7 2 13 22 15 45 2 32 0 42 -12 42
-9 0 -18 -11 -22 -24z"/>
<path d="M4372 5511 c-19 -12 -12 -86 8 -86 10 0 16 12 18 32 4 40 -8 65 -26
54z"/>
<path d="M6210 5510 c0 -5 5 -10 11 -10 5 0 7 5 4 10 -3 6 -8 10 -11 10 -2 0
-4 -4 -4 -10z"/>
<path d="M4583 4803 c-22 -8 -14 -23 12 -23 14 0 25 4 25 9 0 11 -21 19 -37
14z"/>
<path d="M4787 4798 c-21 -11 -23 -80 -3 -97 31 -26 63 21 50 73 -7 29 -24 38
-47 24z"/>
<path d="M4997 4798 c-11 -6 -17 -22 -17 -46 0 -44 14 -62 41 -55 15 4 19 14
19 53 0 51 -13 65 -43 48z"/>
<path d="M3220 4751 c0 -54 18 -72 45 -45 30 30 16 94 -21 94 -22 0 -24 -4
-24 -49z"/>
<path d="M5837 4793 c-4 -4 -24 -7 -45 -7 -35 -1 -37 -3 -40 -37 -4 -45 15
-62 60 -54 32 6 33 8 34 56 1 52 1 53 -9 42z"/>
<path d="M5917 4784 c-10 -11 -8 -66 3 -84 17 -27 45 1 45 46 0 32 -4 40 -20
42 -12 2 -24 0 -28 -4z"/>
</g>
</svg>
